
<svg width="141" height="30" viewBox="0 0 141 30" fill="none" xmlns="http://www.w3.org/2000/svg">
<path d="M22.6422 29.7345H17.3325L5.30973 11.5676V29.7345H0V3.22377H5.30973L17.3325 21.4286V3.22377H22.6422V29.7345Z" fill="#016241"/>
<path d="M45.8288 8.72314V29.7345H40.4811V27.0796C39.7984 27.9899 38.9008 28.7105 37.7883 29.2415C36.7011 29.7472 35.5127 30 34.2232 30C32.5797 30 31.1258 29.6587 29.8616 28.976C28.5974 28.268 27.5987 27.244 26.8654 25.9039C26.1575 24.5386 25.8035 22.9204 25.8035 21.0493V8.72314H31.1132V20.2908C31.1132 21.9595 31.5304 23.2491 32.3648 24.1593C33.1992 25.0443 34.337 25.4867 35.7782 25.4867C37.2447 25.4867 38.3951 25.0443 39.2295 24.1593C40.0639 23.2491 40.4811 21.9595 40.4811 20.2908V8.72314H45.8288Z" fill="#016241"/>
<path d="M55.3534 13.0847V23.2491C55.3534 23.957 55.5177 24.4753 55.8464 24.804C56.2004 25.1075 56.782 25.2592 57.5911 25.2592H60.0563V29.7345H56.7188C52.2434 29.7345 50.0057 27.5601 50.0057 23.2111V13.0847H47.5026V8.72314H50.0057V3.52718H55.3534V8.72314H60.0563V13.0847H55.3534Z" fill="#016241"/>
<path d="M67.2887 11.9848C67.9714 10.8723 68.8564 10 69.9436 9.36789C71.0561 8.73578 72.3203 8.41972 73.7363 8.41972V13.9949H72.333C70.6642 13.9949 69.4 14.3869 68.5403 15.1707C67.7059 15.9545 67.2887 17.3199 67.2887 19.2668V29.7345H61.979V8.72314H67.2887V11.9848Z" fill="#016241"/>
<path d="M78.1091 6.21998C77.1736 6.21998 76.3898 5.9292 75.7576 5.34766C75.1508 4.74083 74.8474 3.99494 74.8474 3.10999C74.8474 2.22503 75.1508 1.49178 75.7576 0.91024C76.3898 0.303413 77.1736 0 78.1091 0C79.0446 0 79.8158 0.303413 80.4226 0.91024C81.0547 1.49178 81.3708 2.22503 81.3708 3.10999C81.3708 3.99494 81.0547 4.74083 80.4226 5.34766C79.8158 5.9292 79.0446 6.21998 78.1091 6.21998ZM80.726 8.72314V29.7345H75.4163V8.72314H80.726Z" fill="#016241"/>
<path d="M99.6713 24.6901H89.1277L87.3831 29.7344H81.8079L91.3275 3.22363H97.5095L107.029 29.7344H101.416L99.6713 24.6901ZM98.2301 20.4423L94.3995 9.36776L90.5689 20.4423H98.2301Z" fill="#F48722"/>
<path d="M114.001 3.26156V29.7344H108.691V3.26156H114.001Z" fill="#F48722"/>
<path d="M121.403 5.46143H122.963C123.997 5.46143 124.988 5.86101 125.718 6.57227C126.449 7.28354 126.86 8.24822 126.86 9.25409H125.299C124.266 9.25409 123.275 8.85451 122.544 8.14325C121.814 7.43198 121.403 6.4673 121.403 5.46143Z" stroke="#F48722" stroke-width="2.7" stroke-miterlimit="10"/>
<path d="M129.032 8.49561H127.471C127.471 7.99755 127.572 7.50436 127.768 7.04421C127.964 6.58407 128.251 6.16597 128.613 5.81378C129.343 5.10252 130.334 4.70294 131.368 4.70294H132.928C132.928 5.70882 132.517 6.6735 131.787 7.38476C131.056 8.09602 130.065 8.49561 129.032 8.49561Z" stroke="#F48722" stroke-width="2.7" stroke-miterlimit="10"/>
<path d="M127.472 13.8433V8.49561" stroke="#F48722" stroke-width="2.7" stroke-miterlimit="10"/>
<path d="M119.214 28.5968H128.867C129.668 28.5974 130.461 28.4611 131.2 28.1958C131.94 27.9305 132.612 27.5413 133.178 27.0506C133.178 27.0506 141.46 24.6581 139.226 22.3389C136.991 20.0197 128.957 24.3781 128.957 24.3781H120.929C121.283 24.3776 128.5 24.3102 128.821 24.1808C129.142 24.0513 129.426 23.8627 129.655 23.6283C129.883 23.3939 130.049 23.1191 130.142 22.8233C130.235 22.5275 130.253 22.2176 130.194 21.9153C130.072 21.4109 129.75 20.9593 129.284 20.6386C128.819 20.318 128.238 20.1484 127.643 20.1593H122.874L121.688 19.6513C120.669 19.2137 119.527 19.0383 118.397 19.146C117.266 19.2536 116.196 19.6398 115.311 20.2587C114.621 20.7381 114.066 21.3472 113.689 22.0398C113.311 22.7325 112.67 23.612 112.68 24.3781" stroke="#F48722" stroke-width="2.7" stroke-miterlimit="10"/>
<path d="M132.456 22.5285C135.843 19.5486 134.96 14.3843 133.019 13.3619C130.904 12.2482 127.454 14.4455 127.454 14.4455C127.454 14.4455 124.267 12.4274 122.171 13.3619C120.139 14.2679 119.978 16.9939 120.557 19.1422" stroke="#F48722" stroke-width="2.7"/>
</svg>
